<svg width="32" height="32" viewBox="0 0 32 32" fill="none" xmlns="http://www.w3.org/2000/svg">
<path d="M28.966 12H9.442C9.02207 11.9999 8.61276 12.132 8.2721 12.3775C7.93143 12.6231 7.6767 12.9696 7.544 13.368L4 24V10H28C28 9.46957 27.7893 8.96086 27.4142 8.58579C27.0391 8.21071 26.5304 8 26 8H15.124C14.6562 7.99979 14.2033 7.8356 13.844 7.536L12.556 6.464C12.1967 6.1644 11.7438 6.00021 11.276 6H4C3.46957 6 2.96086 6.21071 2.58579 6.58579C2.21071 6.96086 2 7.46957 2 8V24C2 24.5304 2.21071 25.0391 2.58579 25.4142C2.96086 25.7893 3.46957 26 4 26H26L30.806 14.788C30.9365 14.4837 30.9893 14.1517 30.9598 13.8219C30.9303 13.492 30.8194 13.1747 30.637 12.8983C30.4546 12.622 30.2065 12.3952 29.9148 12.2384C29.6232 12.0816 29.2971 11.9997 28.966 12Z" fill="#FF7043"/>
<path fill-rule="evenodd" clip-rule="evenodd" d="M21.6067 25.368L20.2814 24.052L21.6067 22.7266L22.9227 24.052L24.2387 22.7266L22.9227 21.4106L24.2387 20.0946L25.564 21.4106L26.88 20.0946L24.2387 17.4533L17.64 24.052L20.2814 26.6933L21.6067 25.368ZM14.0747 28.9333L16.9867 26.0306L15.008 24.052L24.2387 14.812L26.2267 16.8L27.5334 15.4746L26.2267 14.1493L27.5334 12.8333L31.5 16.8L30.184 18.1066L28.8587 16.8L27.5334 18.1066L29.5214 20.0946L20.2814 29.3253L18.3027 27.3466L14.0747 31.584V28.9333Z" fill="#FFECB3"/>
</svg>
