<svg width="32" height="32" viewBox="0 0 32 32" fill="none" xmlns="http://www.w3.org/2000/svg">
<path d="M28.966 12H9.442C9.02207 11.9999 8.61276 12.132 8.2721 12.3775C7.93143 12.6231 7.6767 12.9696 7.544 13.368L4 24V10H28C28 9.46957 27.7893 8.96086 27.4142 8.58579C27.0391 8.21071 26.5304 8 26 8H15.124C14.6562 7.99979 14.2033 7.8356 13.844 7.536L12.556 6.464C12.1967 6.1644 11.7438 6.00021 11.276 6H4C3.46957 6 2.96086 6.21071 2.58579 6.58579C2.21071 6.96086 2 7.46957 2 8V24C2 24.5304 2.21071 25.0391 2.58579 25.4142C2.96086 25.7893 3.46957 26 4 26H26L30.806 14.788C30.9365 14.4837 30.9893 14.1517 30.9598 13.8219C30.9303 13.492 30.8194 13.1747 30.637 12.8983C30.4546 12.622 30.2065 12.3952 29.9148 12.2384C29.6232 12.0816 29.2971 11.9997 28.966 12Z" fill="#009688"/>
<path fill-rule="evenodd" clip-rule="evenodd" d="M27.3802 24.0981C27.1687 24.0981 26.964 24.1256 26.7669 24.1726L26.7482 24.1432L24.2976 20.2743C24.8411 19.7844 25.1852 19.0749 25.1852 18.2827C25.1852 16.8053 23.9955 15.6076 22.528 15.6076C21.0605 15.6076 19.8709 16.8053 19.8709 18.2827C19.8709 19.0749 20.2149 19.7844 20.7584 20.2743L18.3078 24.1432L18.2892 24.1726C18.092 24.1256 17.8873 24.0981 17.6758 24.0981C16.2083 24.0981 15.0187 25.2958 15.0187 26.7732C15.0187 28.2506 16.2083 29.4483 17.6758 29.4483C19.1433 29.4483 20.333 28.2506 20.333 26.7732C20.333 25.761 19.7743 24.8805 18.9507 24.4261L21.3308 20.6686C21.6909 20.8521 22.0968 20.9578 22.528 20.9578C22.9592 20.9578 23.3652 20.8521 23.7253 20.6686L26.1053 24.4261C25.2817 24.8805 24.723 25.761 24.723 26.7732C24.723 28.2506 25.9127 29.4483 27.3802 29.4483C28.8477 29.4483 30.0373 28.2506 30.0373 26.7732C30.0373 25.2958 28.8477 24.0981 27.3802 24.0981ZM17.669 28.0365C16.985 28.0365 16.4305 27.482 16.4305 26.798C16.4305 26.114 16.985 25.5595 17.669 25.5595C18.3531 25.5595 18.9076 26.114 18.9076 26.798C18.9076 27.482 18.3531 28.0365 17.669 28.0365Z" fill="#B2DFDB"/>
</svg>
