<svg width="32" height="32" viewBox="0 0 32 32" fill="none" xmlns="http://www.w3.org/2000/svg">
<g clip-path="url(#clip0_22_154)">
<path d="M13.844 7.536L12.556 6.464C12.1967 6.1644 11.7438 6.00021 11.276 6H4C3.46957 6 2.96086 6.21071 2.58579 6.58579C2.21071 6.96086 2 7.46957 2 8V24C2 24.5304 2.21071 25.0391 2.58579 25.4142C2.96086 25.7893 3.46957 26 4 26H28C28.5304 26 29.0391 25.7893 29.4142 25.4142C29.7893 25.0391 30 24.5304 30 24V10C30 9.46957 29.7893 8.96086 29.4142 8.58579C29.0391 8.21071 28.5304 8 28 8H15.124C14.6562 7.99979 14.2033 7.8356 13.844 7.536Z" fill="#00BFA5"/>
<path d="M28.84 20.1454C28.4816 19.7726 28.0516 19.4762 27.5757 19.274C27.0999 19.0717 26.588 18.9679 26.0709 18.9686C25.5539 18.9694 25.0423 19.0747 24.567 19.2783C24.0918 19.4819 23.6626 19.7796 23.3053 20.1534C21.7747 21.7267 21.7747 24.2747 23.3053 25.8387C23.9231 26.4791 24.7438 26.8854 25.6277 26.9883C26.5115 27.0911 27.4037 26.8842 28.152 26.4027L30.8573 29.1467L32.0666 27.904L29.3787 25.124C29.8557 24.3525 30.0616 23.4438 29.9638 22.5419C29.866 21.6401 29.4713 20.7967 28.84 20.1454ZM27.612 24.5694C26.7586 25.4454 25.3853 25.436 24.532 24.5694C24.1251 24.1426 23.8988 23.5751 23.9006 22.9855C23.9023 22.3958 24.1319 21.8297 24.5413 21.4054C24.7407 21.1998 24.9793 21.0363 25.2431 20.9247C25.5068 20.813 25.7903 20.7555 26.0767 20.7555C26.363 20.7555 26.6465 20.813 26.9102 20.9247C27.174 21.0363 27.4126 21.1998 27.612 21.4054C28.0183 21.8318 28.245 22.3983 28.245 22.9874C28.245 23.5764 28.0183 24.1429 27.612 24.5694ZM22.0693 27.1C21.4995 26.5065 21.0611 25.7996 20.7827 25.0254C18.0413 24.552 16.0667 23.22 16.0667 21.6467V24.328C16.0667 26.304 19.1813 27.904 23.0267 27.904C22.6784 27.6728 22.3572 27.4031 22.0693 27.1ZM16.0667 17.1774V19.8587C16.0667 21.36 17.8666 22.648 20.4173 23.1654V22.988C20.4173 22.156 20.5907 21.3347 20.9213 20.5827C18.1027 20.1267 16.0667 18.7774 16.0667 17.1774ZM23.0267 11.8134C19.1813 11.8134 16.0667 13.4134 16.0667 15.3894C16.0667 17.176 18.6773 18.6787 22.0267 18.9654H22.0693C23.1147 17.8387 24.5587 17.1774 26.072 17.1774C26.864 17.1774 27.6467 17.3467 28.3693 17.6774C28.812 17.466 29.1931 17.1447 29.4762 16.7442C29.7594 16.3436 29.9351 15.8772 29.9867 15.3894C29.9867 13.4134 26.872 11.8134 23.0267 11.8134Z" fill="#A7FFEB"/>
</g>
<defs>
<clipPath id="clip0_22_154">
<rect width="32" height="32" fill="white"/>
</clipPath>
</defs>
</svg>
