<svg width="32" height="32" viewBox="0 0 32 32" fill="none" xmlns="http://www.w3.org/2000/svg">
<path d="M13.844 7.536L12.556 6.464C12.1967 6.1644 11.7438 6.00021 11.276 6H4C3.46957 6 2.96086 6.21071 2.58579 6.58579C2.21071 6.96086 2 7.46957 2 8V24C2 24.5304 2.21071 25.0391 2.58579 25.4142C2.96086 25.7893 3.46957 26 4 26H28C28.5304 26 29.0391 25.7893 29.4142 25.4142C29.7893 25.0391 30 24.5304 30 24V10C30 9.46957 29.7893 8.96086 29.4142 8.58579C29.0391 8.21071 28.5304 8 28 8H15.124C14.6562 7.99979 14.2033 7.8356 13.844 7.536Z" fill="#03A9F4"/>
<path d="M16.0662 21.6466C16.0662 23.2199 18.0416 24.5522 20.783 25.0255C21.0613 25.7996 21.4994 26.5063 22.0691 27.0997C22.357 27.4028 22.6788 27.6732 23.0271 27.9044C19.1819 27.9044 16.0664 26.3041 16.0662 24.3282V21.6466ZM28.3992 25.9357H22.614V25.1085H28.3992V25.9357ZM28.3992 21.8029H26.7458V24.2823H24.2664V21.8029H22.614L25.5066 18.4962L28.3992 21.8029ZM16.0662 17.1769C16.0662 18.7769 18.103 20.1271 20.9216 20.5831C20.591 21.3351 20.4177 22.1565 20.4177 22.9884V23.1652C17.8671 22.6478 16.0662 21.3599 16.0662 19.8585V17.1769ZM23.0271 11.8136C26.8722 11.8137 29.9871 13.4138 29.9871 15.3898C29.9355 15.8775 29.7594 16.3438 29.4763 16.7443C29.1932 17.1448 28.8116 17.4656 28.3689 17.6769C27.6464 17.3464 26.8638 17.1769 26.072 17.1769C24.5587 17.1769 23.1144 17.8384 22.0691 18.965H22.0271C18.678 18.6783 16.0666 17.1763 16.0662 15.3898C16.0662 13.4138 19.1818 11.8136 23.0271 11.8136Z" fill="#B3E5FC"/>
</svg>
