<svg width="32" height="32" viewBox="0 0 32 32" fill="none" xmlns="http://www.w3.org/2000/svg">
<path d="M28.966 12H9.442C9.02207 11.9999 8.61276 12.132 8.2721 12.3775C7.93143 12.6231 7.6767 12.9696 7.544 13.368L4 24V10H28C28 9.46957 27.7893 8.96086 27.4142 8.58579C27.0391 8.21071 26.5304 8 26 8H15.124C14.6562 7.99979 14.2033 7.8356 13.844 7.536L12.556 6.464C12.1967 6.1644 11.7438 6.00021 11.276 6H4C3.46957 6 2.96086 6.21071 2.58579 6.58579C2.21071 6.96086 2 7.46957 2 8V24C2 24.5304 2.21071 25.0391 2.58579 25.4142C2.96086 25.7893 3.46957 26 4 26H26L30.806 14.788C30.9365 14.4837 30.9893 14.1517 30.9598 13.8219C30.9303 13.492 30.8194 13.1747 30.637 12.8983C30.4546 12.622 30.2065 12.3952 29.9148 12.2384C29.6232 12.0816 29.2971 11.9997 28.966 12Z" fill="#1976D2"/>
<path d="M18.8528 17.472L20.5216 19.1344L19.4912 20.1648L17.8288 18.4944L16.168 20.1648L15.1376 19.1344L16.8064 17.472L15.1376 15.8096L16.168 14.7792L17.8288 16.448L19.4912 14.7792L20.5216 15.8096M29.9584 25.2448L28.928 24.2144L27.2656 25.8832L25.6032 24.2144L24.5728 25.2448L26.2416 26.9072L24.5728 28.5696L25.6032 29.6L27.2656 27.9312L28.928 29.6L29.9584 28.5696L28.288 26.9072M28.6448 18.4368L26.3072 21.464L25.16 20.5424L26.0096 19.4528C23.808 19.9008 21.9872 21.4384 21.176 23.5328C22.4816 24.4736 22.9056 26.2256 22.1776 27.6608C21.4496 29.0944 19.784 29.7856 18.2544 29.2864C16.7232 28.7888 15.784 27.2496 16.04 25.6608C16.2976 24.072 17.672 22.9072 19.2816 22.9152C19.472 22.9168 19.6608 22.936 19.848 22.9728C20.8688 20.4384 23.088 18.5824 25.7632 18.024L24.7248 17.24L25.6464 16.0928M21.096 26.1808C21.096 25.1792 20.2832 24.3664 19.2816 24.3664C18.2784 24.3664 17.4672 25.1792 17.4672 26.1808C17.4672 27.184 18.2784 27.9952 19.2816 27.9952C20.2832 27.9952 21.096 27.184 21.096 26.1808Z" fill="#4FC3F7"/>
</svg>
