<svg width="32" height="32" viewBox="0 0 32 32" fill="none" xmlns="http://www.w3.org/2000/svg">
<path d="M28.966 12H9.442C9.02207 11.9999 8.61276 12.132 8.2721 12.3775C7.93143 12.6231 7.6767 12.9696 7.544 13.368L4 24V10H28C28 9.46957 27.7893 8.96086 27.4142 8.58579C27.0391 8.21071 26.5304 8 26 8H15.124C14.6562 7.99979 14.2033 7.8356 13.844 7.536L12.556 6.464C12.1967 6.1644 11.7438 6.00021 11.276 6H4C3.46957 6 2.96086 6.21071 2.58579 6.58579C2.21071 6.96086 2 7.46957 2 8V24C2 24.5304 2.21071 25.0391 2.58579 25.4142C2.96086 25.7893 3.46957 26 4 26H26L30.806 14.788C30.9365 14.4837 30.9893 14.1517 30.9598 13.8219C30.9303 13.492 30.8194 13.1747 30.637 12.8983C30.4546 12.622 30.2065 12.3952 29.9148 12.2384C29.6232 12.0816 29.2971 11.9997 28.966 12Z" fill="#EF5350"/>
<path fill-rule="evenodd" clip-rule="evenodd" d="M20.4739 16.0653L20.8569 16.8428L19.499 17.3532L21.3901 17.5703L21.9794 18.5334L22.3532 17.6369L23.9802 17.4651L22.7349 16.9706L23.0423 16.1818L21.8016 16.5705L20.4739 16.0653ZM23.0992 18.846L25.689 19.8844L28.5861 18.7357L25.9762 17.7096L23.0992 18.846ZM12.7609 21.5514L20.3824 24.7532C21.1062 25.1049 21.8438 25.084 22.7901 24.5851C25.6947 23.2101 29.3347 21.8008 30.7565 21.0068C31.0752 20.7809 31.0612 20.8361 31.0612 19.7364C31.0612 19.2111 31.0586 18.7821 31.0525 18.7821C30.9803 18.8868 30.8374 19.0021 30.6664 19.1218C29.2973 19.8875 26.0089 21.1972 23.0274 22.5521C22.2648 22.9251 21.5015 23.2635 20.7228 22.9616C17.4441 21.5538 13.2999 19.9102 12.4191 19.4373C12.2439 19.3478 12.086 19.2186 11.9484 19.043V21.0182C12.1321 21.2243 12.4212 21.3961 12.7609 21.5514ZM18.8213 20.4999L21.8577 21.7755L23.2007 19.8441L18.8213 20.4999ZM19.9079 27.8167C21.2987 28.5146 21.8649 28.3155 22.9328 27.7817C25.8222 26.455 29.3761 24.9931 30.6786 24.3251C30.8105 24.2287 30.9384 24.1166 31.0586 23.974C31.0586 23.974 31.056 22.0303 31.0498 22.0303C30.7241 22.7269 26.5253 24.1403 23.0834 25.7924C22.0953 26.2747 21.4196 26.6151 20.195 26.0245C17.0765 24.6226 12.6692 23.0257 12.0859 22.4628L11.9467 22.3324V24.2752L12.1034 24.4231C12.5359 24.9082 16.3147 26.1875 19.9079 27.8167ZM22.9398 30.9519C23.7138 30.5807 24.2855 30.3259 26.8114 29.2377C30.3205 27.7265 30.7005 27.5444 30.9676 27.2362L31.0604 27.132C31.0604 27.132 31.0577 25.1918 31.0542 25.1918C31.0481 25.1918 31.0078 25.2382 30.9614 25.296C30.732 25.5832 30.2741 25.8038 26.7098 27.3378C24.3836 28.3411 23.6761 28.6546 22.9109 29.0197C21.7902 29.5633 21.2982 29.6125 20.385 29.2517L12.6296 25.9693C12.3538 25.8301 12.0727 25.6331 12.0088 25.5315L11.9475 25.4387V26.4281C11.9475 27.5619 11.9274 27.4778 12.2321 27.6836C12.5683 27.9095 13.0673 28.1301 16.3856 29.5073C18.7057 30.4704 19.541 30.8215 19.9525 31.0071C21.2655 31.6986 21.9343 31.4189 22.9398 30.9519ZM16.4123 19.6584C14.8332 19.3079 14.8332 18.4267 16.4123 18.0762C17.9914 17.7256 19.9759 18.1662 19.9759 18.8673C19.9759 19.5684 17.9914 20.009 16.4123 19.6584Z" fill="#FFCDD2"/>
</svg>
